REM Ripping Tool: trurip

FILE "Super Daisenryaku (1990)(Micro Cabin)(JP).img" BINARY
  TRACK 01 AUDIO
    INDEX 01 00:00:00
  TRACK 02 MODE1/2352
    INDEX 00 00:44:65
    INDEX 01 00:47:65
  TRACK 03 AUDIO
    INDEX 00 02:35:44
    INDEX 01 02:37:44
  TRACK 04 AUDIO
    INDEX 01 03:11:09
  TRACK 05 AUDIO
    INDEX 01 03:42:60
  TRACK 06 AUDIO
    INDEX 01 04:16:25
  TRACK 07 AUDIO
    INDEX 01 04:49:65
  TRACK 08 AUDIO
    INDEX 01 05:23:30
  TRACK 09 AUDIO
    INDEX 01 08:29:47

REM DISC HASHES
REM CRC32 : da67aece
REM MD5   : 3ef1c047c94787f845b782c140984351
REM SHA1  : e3ca116f4f5db358af8c1e6d64c8aad7b202fba3

REM Gap Append Method: Prev [crc32]
REM Trk 01: ccd25d2f
REM Trk 02: 6346b740
REM Trk 03: 1a49e8ae
REM Trk 04: 4246c58d
REM Trk 05: 8b14ea4d
REM Trk 06: 3fdab35d
REM Trk 07: bfc60816
REM Trk 08: 04cc516e
REM Trk 09: 01aff5b1

REM Gap Append Method: Prev [md5]
REM Trk 01: 7938d9aa88f644b60389fa8246f2052e
REM Trk 02: 3993f2eac1758eab5e5125640bb660cd
REM Trk 03: ba8a7e3e886cf17241f82768e2fd03c7
REM Trk 04: 9dc7cd91e95a79ffc090d688c0c69a36
REM Trk 05: a907d8752f3319e4d14d458c92f00b43
REM Trk 06: deb9a5fb71d0c8b174ef363c5681154b
REM Trk 07: ee342a87be0839448fc8ac128c986243
REM Trk 08: e4c0013dda26037cea59fd2cefaad4a8
REM Trk 09: 78d70acb3384cdb1986612c84ca09753

REM Gap Append Method: Prev [sha1]
REM Trk 01: 0fc7f8840f23f43ebfb7041f71427c165f368105
REM Trk 02: 5ccb03c4fd621633e184ff5606cc451c91b0cdb7
REM Trk 03: 26bd3c44bbc8530317292131150dedeb9efe358f
REM Trk 04: 7835606f06bc687ff09a645b1f9fd147653240a0
REM Trk 05: 4f637170f285be2de99a319d2b2073660eac9c51
REM Trk 06: a20cdd9feb265d632fd713fe100426e99b67e2b0
REM Trk 07: 53faf70316e5c56f7f44ec0c19682bc441093c4c
REM Trk 08: 843a569465ad12c05a0347a0c00ba958bde02e5c
REM Trk 09: 39bd2dfa0d433406f7dc102260ff91bce780684c

REM Gap Append Method: None [crc32]
REM Trk 01: b979500c
REM Trk 02: 60bf4b4c
REM Trk 03: 1a49e8ae
REM Trk 04: 4246c58d
REM Trk 05: 8b14ea4d
REM Trk 06: 3fdab35d
REM Trk 07: bfc60816
REM Trk 08: 04cc516e
REM Trk 09: 01aff5b1
REM Gap 02: 16e86594
REM Gap 03: dafa1f66

REM Gap Append Method: None [md5]
REM Trk 01: a25a2c129b7100092cc40e9b6e176a63
REM Trk 02: b9d02e85deded07453f2f61aea7514da
REM Trk 03: ba8a7e3e886cf17241f82768e2fd03c7
REM Trk 04: 9dc7cd91e95a79ffc090d688c0c69a36
REM Trk 05: a907d8752f3319e4d14d458c92f00b43
REM Trk 06: deb9a5fb71d0c8b174ef363c5681154b
REM Trk 07: ee342a87be0839448fc8ac128c986243
REM Trk 08: e4c0013dda26037cea59fd2cefaad4a8
REM Trk 09: 78d70acb3384cdb1986612c84ca09753
REM Gap 02: fbd314ec9876f082e173fbb5baf092aa
REM Gap 03: bf8e4e8fafc9465a5354806351c9f376

REM Gap Append Method: None [sha1]
REM Trk 01: 9ac3f1a11d434d186466917f1c7955bf7670c910
REM Trk 02: 0736704f04483bfa9b178ba6c7e98241f180e97d
REM Trk 03: 26bd3c44bbc8530317292131150dedeb9efe358f
REM Trk 04: 7835606f06bc687ff09a645b1f9fd147653240a0
REM Trk 05: 4f637170f285be2de99a319d2b2073660eac9c51
REM Trk 06: a20cdd9feb265d632fd713fe100426e99b67e2b0
REM Trk 07: 53faf70316e5c56f7f44ec0c19682bc441093c4c
REM Trk 08: 843a569465ad12c05a0347a0c00ba958bde02e5c
REM Trk 09: 39bd2dfa0d433406f7dc102260ff91bce780684c
REM Gap 02: 08a9af7bae10b281a8edaad6e9ea6cd1646d0ce0
REM Gap 03: 0932a1e6137bec797a34ae9bae12980d408de4a1

REM Gap Append Method: Next [crc32]
REM Trk 01: b979500c
REM Trk 02: 0db0c71d
REM Trk 03: 35faf160
REM Trk 04: 4246c58d
REM Trk 05: 8b14ea4d
REM Trk 06: 3fdab35d
REM Trk 07: bfc60816
REM Trk 08: 04cc516e
REM Trk 09: 01aff5b1

REM Gap Append Method: Next [md5]
REM Trk 01: a25a2c129b7100092cc40e9b6e176a63
REM Trk 02: c4a64f7435a36d653189f89e2880e4d9
REM Trk 03: f1825a4d5266b4f7c59c3f984435ac0b
REM Trk 04: 9dc7cd91e95a79ffc090d688c0c69a36
REM Trk 05: a907d8752f3319e4d14d458c92f00b43
REM Trk 06: deb9a5fb71d0c8b174ef363c5681154b
REM Trk 07: ee342a87be0839448fc8ac128c986243
REM Trk 08: e4c0013dda26037cea59fd2cefaad4a8
REM Trk 09: 78d70acb3384cdb1986612c84ca09753

REM Gap Append Method: Next [sha1]
REM Trk 01: 9ac3f1a11d434d186466917f1c7955bf7670c910
REM Trk 02: 5d1b86dbccd96f21aad224759a98ed774c163602
REM Trk 03: b499c8744a21928ae60f85e047dd69ed29dd452f
REM Trk 04: 7835606f06bc687ff09a645b1f9fd147653240a0
REM Trk 05: 4f637170f285be2de99a319d2b2073660eac9c51
REM Trk 06: a20cdd9feb265d632fd713fe100426e99b67e2b0
REM Trk 07: 53faf70316e5c56f7f44ec0c19682bc441093c4c
REM Trk 08: 843a569465ad12c05a0347a0c00ba958bde02e5c
REM Trk 09: 39bd2dfa0d433406f7dc102260ff91bce780684c

